<svg xmlns="http://www.w3.org/2000/svg" xmlns:xlink="http://www.w3.org/1999/xlink" width="1000" zoomAndPan="magnify" viewBox="0 0 750 577.499988" height="770" preserveAspectRatio="xMidYMid meet" version="1.0"><defs><clipPath id="6ebf744561"><path d="M 227.320312 433 L 315 433 L 315 506 L 227.320312 506 Z M 227.320312 433 " clip-rule="nonzero"/></clipPath><clipPath id="180202625b"><path d="M 662 287 L 749.621094 287 L 749.621094 361 L 662 361 Z M 662 287 " clip-rule="nonzero"/></clipPath><clipPath id="10730d8c78"><path d="M 430 462 L 533 462 L 533 549.113281 L 430 549.113281 Z M 430 462 " clip-rule="nonzero"/></clipPath><clipPath id="3807b60bd1"><path d="M 561 26.816406 L 749.621094 26.816406 L 749.621094 187 L 561 187 Z M 561 26.816406 " clip-rule="nonzero"/></clipPath><clipPath id="c7d3fbca56"><path d="M 341 466 L 456.246094 466 L 456.246094 521.644531 L 341 521.644531 Z M 341 466 " clip-rule="nonzero"/></clipPath><clipPath id="7854de8a0d"><path d="M 341 504.539062 L 456.246094 504.539062 L 456.246094 521.644531 L 341 521.644531 Z M 341 504.539062 " clip-rule="nonzero"/></clipPath><clipPath id="fdbca5cda7"><path d="M 30 422.449219 L 290.6875 422.449219 L 290.6875 530.640625 L 30 530.640625 Z M 30 422.449219 " clip-rule="nonzero"/></clipPath><clipPath id="cb3d65c548"><path d="M 113 455 L 290.6875 455 L 290.6875 530.640625 L 113 530.640625 Z M 113 455 " clip-rule="nonzero"/></clipPath><clipPath id="2b88e5bc60"><path d="M 146 105.019531 L 277 105.019531 L 277 190 L 146 190 Z M 146 105.019531 " clip-rule="nonzero"/></clipPath></defs><g clip-path="url(#6ebf744561)"><path fill="#3949ab" d="M 249.332031 505.589844 L 227.570312 469.316406 L 249.332031 433.046875 L 292.855469 433.046875 L 314.617188 469.316406 L 292.855469 505.589844 Z M 249.332031 505.589844 " fill-opacity="1" fill-rule="nonzero"/></g><path fill="#3949ab" d="M 492.34375 404.03125 L 474.210938 375.011719 L 492.34375 345.996094 L 528.617188 345.996094 L 546.75 375.011719 L 528.617188 404.03125 Z M 492.34375 404.03125 " fill-opacity="1" fill-rule="nonzero"/><path fill="#3949ab" d="M 423.429688 171.898438 L 401.667969 135.628906 L 423.429688 99.355469 L 466.957031 99.355469 L 488.71875 135.628906 L 466.957031 171.898438 Z M 423.429688 171.898438 " fill-opacity="1" fill-rule="nonzero"/><g clip-path="url(#180202625b)"><path fill="#3949ab" d="M 684.578125 360.503906 L 662.816406 324.234375 L 684.578125 287.964844 L 728.105469 287.964844 L 749.867188 324.234375 L 728.105469 360.503906 Z M 684.578125 360.503906 " fill-opacity="1" fill-rule="nonzero"/></g><path fill="#3949ab" d="M 599.140625 418.539062 L 590.277344 404.03125 L 599.140625 389.523438 L 616.925781 389.523438 L 625.804688 404.03125 L 616.925781 418.539062 Z M 599.140625 418.539062 " fill-opacity="1" fill-rule="nonzero"/><path fill="#3949ab" d="M 281.976562 157.390625 L 271.09375 139.617188 L 281.976562 121.859375 L 303.738281 121.859375 L 314.617188 139.617188 L 303.738281 157.390625 Z M 281.976562 157.390625 " fill-opacity="1" fill-rule="nonzero"/><path fill="#1e88e5" d="M 296.484375 287.964844 L 271.09375 244.4375 L 296.484375 200.914062 L 347.261719 200.914062 L 372.652344 244.4375 L 347.261719 287.964844 Z M 296.484375 287.964844 " fill-opacity="1" fill-rule="nonzero"/><g clip-path="url(#10730d8c78)"><path fill="#1e88e5" d="M 456.074219 549.113281 L 430.683594 505.589844 L 456.074219 462.0625 L 506.851562 462.0625 L 532.242188 505.589844 L 506.851562 549.113281 Z M 456.074219 549.113281 " fill-opacity="1" fill-rule="nonzero"/></g><path fill="#1e88e5" d="M 554.003906 273.457031 L 517.734375 208.167969 L 554.003906 142.882812 L 626.546875 142.882812 L 662.816406 208.167969 L 626.546875 273.457031 Z M 554.003906 273.457031 " fill-opacity="1" fill-rule="nonzero"/><path fill="#64b5f6" d="M 307.886719 476.570312 L 256.585938 389.523438 L 307.886719 302.472656 L 408.386719 302.472656 L 459.699219 389.523438 L 408.386719 476.570312 Z M 307.886719 476.570312 " fill-opacity="1" fill-rule="nonzero"/><g clip-path="url(#3807b60bd1)"><path fill="#64b5f6" d="M 604.785156 186.40625 L 561.257812 105.957031 L 604.785156 26.816406 L 706.339844 26.816406 L 749.867188 105.957031 L 706.339844 186.40625 Z M 604.785156 186.40625 " fill-opacity="1" fill-rule="nonzero"/></g><path fill="#d85454" d="M 377.425781 465.859375 L 402.136719 491.03125 L 365.984375 502.136719 L 344.480469 476.734375 L 377.425781 465.859375 " fill-opacity="1" fill-rule="nonzero"/><g clip-path="url(#c7d3fbca56)"><path fill="#343433" d="M 386.195312 482.160156 C 389.324219 481.703125 403.054688 466.140625 403.054688 466.140625 C 407.800781 468.375 410.832031 473.148438 410.832031 478.402344 L 410.832031 485.59375 L 450.148438 500.089844 C 453.289062 501.25 455.5625 503.996094 456.117188 507.296875 C 456.910156 512.058594 453.933594 516.632812 449.261719 517.839844 C 438.648438 520.589844 427.695312 521.8125 416.734375 521.484375 L 353.269531 519.554688 C 346.042969 519.332031 340.644531 512.820312 341.773438 505.675781 L 343.6875 493.488281 C 344.355469 489.25 348.5 486.5 352.664062 487.53125 C 358.339844 488.949219 365.324219 490.660156 366.898438 490.921875 C 369.644531 491.375 386.195312 482.160156 386.195312 482.160156 " fill-opacity="1" fill-rule="nonzero"/></g><g clip-path="url(#7854de8a0d)"><path fill="#eff0f0" d="M 449.261719 517.839844 C 453.933594 516.632812 456.910156 512.058594 456.117188 507.296875 C 455.964844 506.398438 455.675781 505.542969 455.28125 504.742188 C 444.050781 512.765625 430.203125 516.273438 416.492188 514.457031 L 341.945312 504.578125 L 341.773438 505.675781 C 340.644531 512.820312 346.042969 519.332031 353.269531 519.554688 L 416.734375 521.484375 C 427.695312 521.8125 438.648438 520.589844 449.261719 517.839844 " fill-opacity="1" fill-rule="nonzero"/></g><path fill="#e3e4e5" d="M 411.929688 484.613281 L 403.230469 493.371094 C 402.976562 493.628906 402.976562 494.050781 403.238281 494.308594 C 403.5 494.570312 403.917969 494.5625 404.175781 494.304688 L 412.871094 485.550781 C 413.125 485.285156 413.125 484.867188 412.867188 484.609375 C 412.605469 484.351562 412.1875 484.355469 411.929688 484.613281 " fill-opacity="1" fill-rule="nonzero"/><path fill="#e3e4e5" d="M 420.054688 487.25 L 412.160156 495.207031 C 411.902344 495.464844 411.902344 495.882812 412.164062 496.144531 C 412.421875 496.398438 412.839844 496.398438 413.101562 496.140625 L 421 488.1875 C 421.257812 487.929688 421.253906 487.503906 420.996094 487.25 C 420.738281 486.988281 420.3125 486.992188 420.054688 487.25 " fill-opacity="1" fill-rule="nonzero"/><path fill="#e3e4e5" d="M 427.6875 490.613281 L 421.003906 497.347656 C 420.746094 497.605469 420.746094 498.023438 421.007812 498.285156 C 421.265625 498.542969 421.683594 498.542969 421.945312 498.285156 L 428.632812 491.550781 C 428.886719 491.289062 428.886719 490.867188 428.628906 490.609375 C 428.363281 490.351562 427.945312 490.355469 427.6875 490.613281 " fill-opacity="1" fill-rule="nonzero"/><path fill="#e3e4e5" d="M 434.894531 492.902344 L 429.589844 498.238281 C 429.332031 498.5 429.335938 498.921875 429.59375 499.179688 C 429.851562 499.4375 430.273438 499.4375 430.535156 499.175781 L 435.832031 493.839844 C 436.09375 493.574219 436.089844 493.15625 435.832031 492.898438 C 435.570312 492.640625 435.152344 492.640625 434.894531 492.902344 " fill-opacity="1" fill-rule="nonzero"/><path fill="#335977" d="M 131.417969 422.832031 C 211.238281 350.96875 265.101562 300.15625 295.503906 337.136719 C 335.1875 380.621094 388.867188 468.375 388.867188 468.375 L 342.1875 502.136719 L 267.359375 402.464844 L 182.238281 483.257812 L 68.167969 480.511719 L 58.679688 427.175781 C 58.679688 427.175781 94.238281 456.308594 131.417969 422.832031 " fill-opacity="1" fill-rule="nonzero"/><path fill="#2b4c65" d="M 353.644531 493.847656 L 365.769531 485.082031 C 365.769531 485.082031 302.496094 425.519531 262.816406 382.035156 C 248.949219 420.332031 210.554688 443.933594 171.5 458.375 C 164.3125 457.464844 156.992188 456.421875 149.433594 455.253906 L 131.417969 422.832031 C 192.808594 367.558594 238.84375 324.742188 270.660156 324.742188 C 280.21875 324.742188 288.484375 328.601562 295.503906 337.136719 C 335.1875 380.621094 388.867188 468.375 388.867188 468.375 L 353.644531 493.847656 M 60.875 439.519531 L 58.679688 427.175781 C 58.679688 427.175781 65.230469 432.542969 75.648438 436.023438 L 60.875 439.519531 " fill-opacity="1" fill-rule="nonzero"/><path fill="#294860" d="M 353.644531 493.847656 C 354.359375 488.929688 353.121094 483.808594 349.96875 479.679688 C 346.402344 475.003906 340.855469 472.257812 334.972656 472.257812 L 319.761719 472.257812 L 267.359375 402.464844 L 204.875 461.769531 C 193.796875 460.949219 182.808594 459.820312 171.5 458.375 C 210.554688 443.933594 248.949219 420.332031 262.816406 382.035156 C 302.496094 425.519531 365.769531 485.082031 365.769531 485.082031 L 353.644531 493.847656 " fill-opacity="1" fill-rule="nonzero"/><path fill="#eff0f0" d="M 318.042969 519.085938 L 261.886719 519.085938 L 261.886719 472.257812 L 334.972656 472.257812 C 340.855469 472.257812 346.402344 475.003906 349.96875 479.679688 C 354.851562 486.074219 355.140625 494.863281 350.695312 501.566406 C 343.433594 512.507812 331.171875 519.085938 318.042969 519.085938 " fill-opacity="1" fill-rule="nonzero"/><path fill="#343433" d="M 312.839844 518.164062 L 258.894531 518.164062 L 258.894531 473.179688 L 329.097656 473.179688 C 334.75 473.179688 340.078125 475.816406 343.507812 480.3125 C 348.191406 486.453125 348.472656 494.894531 344.199219 501.335938 C 337.226562 511.84375 325.453125 518.164062 312.839844 518.164062 " fill-opacity="1" fill-rule="nonzero"/><path fill="#e3e4e5" d="M 318.636719 485.539062 L 318.636719 502.136719 C 318.636719 502.5 318.9375 502.800781 319.300781 502.800781 C 319.671875 502.800781 319.964844 502.5 319.964844 502.136719 L 319.964844 485.539062 C 319.964844 485.175781 319.671875 484.878906 319.300781 484.878906 C 318.9375 484.878906 318.636719 485.175781 318.636719 485.539062 " fill-opacity="1" fill-rule="nonzero"/><path fill="#e3e4e5" d="M 307.199219 483.257812 L 307.199219 505.34375 C 307.199219 505.707031 307.496094 506.007812 307.863281 506.007812 C 308.226562 506.007812 308.527344 505.707031 308.527344 505.34375 L 308.527344 483.257812 C 308.527344 482.890625 308.226562 482.59375 307.863281 482.59375 C 307.496094 482.59375 307.199219 482.890625 307.199219 483.257812 " fill-opacity="1" fill-rule="nonzero"/><path fill="#e3e4e5" d="M 297.589844 480.511719 L 297.589844 508.089844 C 297.589844 508.457031 297.886719 508.753906 298.253906 508.753906 C 298.617188 508.753906 298.917969 508.457031 298.917969 508.089844 L 298.917969 480.511719 C 298.917969 480.144531 298.617188 479.847656 298.253906 479.847656 C 297.886719 479.847656 297.589844 480.144531 297.589844 480.511719 " fill-opacity="1" fill-rule="nonzero"/><path fill="#e3e4e5" d="M 285.691406 480.511719 L 285.691406 510.835938 C 285.691406 511.199219 285.984375 511.496094 286.355469 511.496094 C 286.71875 511.496094 287.011719 511.199219 287.011719 510.835938 L 287.011719 480.511719 C 287.011719 480.144531 286.71875 479.847656 286.355469 479.847656 C 285.984375 479.847656 285.691406 480.144531 285.691406 480.511719 " fill-opacity="1" fill-rule="nonzero"/><path fill="#e3e4e5" d="M 163.105469 252.097656 L 163.105469 290.65625 C 163.105469 291.027344 163.402344 291.320312 163.769531 291.320312 C 164.132812 291.320312 164.429688 291.027344 164.429688 290.65625 L 164.429688 252.097656 C 164.429688 251.726562 164.132812 251.433594 163.769531 251.433594 C 163.402344 251.433594 163.105469 251.726562 163.105469 252.097656 " fill-opacity="1" fill-rule="nonzero"/><path fill="#e3e4e5" d="M 163.136719 252.300781 C 163.136719 252.304688 163.269531 252.699219 163.5 253.429688 C 165.117188 258.550781 171.589844 280.171875 171.582031 296.367188 C 171.582031 298.648438 171.457031 300.816406 171.171875 302.808594 C 171.121094 303.171875 171.375 303.507812 171.738281 303.5625 C 172.097656 303.609375 172.433594 303.359375 172.488281 302.996094 C 172.78125 300.925781 172.910156 298.695312 172.910156 296.367188 C 172.910156 286.925781 170.777344 275.828125 168.652344 267.066406 C 166.523438 258.304688 164.398438 251.894531 164.394531 251.886719 C 164.28125 251.539062 163.90625 251.347656 163.558594 251.464844 C 163.210938 251.578125 163.023438 251.953125 163.136719 252.300781 " fill-opacity="1" fill-rule="nonzero"/><path fill="#e3a97d" d="M 130.535156 206.527344 L 157.378906 182.910156 L 169.953125 138.714844 L 218.796875 124.925781 L 254.773438 178.859375 L 240.175781 196.148438 L 226.578125 219.480469 C 225.289062 222.3125 222.140625 223.792969 219.144531 222.976562 L 215.957031 222.113281 L 200.945312 234.5625 C 194.644531 239.832031 184.960938 239.042969 180.171875 232.367188 L 180.070312 232.21875 L 178.121094 229.433594 L 155.828125 247.320312 L 130.535156 206.527344 " fill-opacity="1" fill-rule="nonzero"/><g clip-path="url(#fdbca5cda7)"><path fill="#335977" d="M 30.054688 446.808594 L 30.054688 475.410156 C 30.054688 497.300781 46.457031 515.710938 68.199219 518.222656 L 143.34375 526.90625 C 182.421875 531.425781 205.394531 531.84375 244.558594 528.160156 L 261.8125 526.539062 C 280.152344 524.816406 293.140625 507.851562 290.03125 489.695312 C 287.433594 474.503906 274.265625 463.402344 258.851562 463.402344 L 250.152344 463.402344 C 214.589844 463.402344 184.578125 460.675781 149.433594 455.253906 L 131.417969 422.832031 L 30.054688 446.808594 " fill-opacity="1" fill-rule="nonzero"/></g><path fill="#f2f2f2" d="M 244.558594 528.160156 L 260.96875 526.617188 C 260.921875 526.625 260.878906 526.628906 260.835938 526.628906 L 244.558594 528.160156 M 261.875 463.542969 L 261.871094 463.542969 L 261.875 463.542969 M 261.78125 463.535156 C 261.78125 463.535156 261.78125 463.535156 261.777344 463.535156 C 261.78125 463.535156 261.78125 463.535156 261.78125 463.535156 M 261.738281 463.53125 C 261.738281 463.53125 261.734375 463.53125 261.734375 463.53125 C 261.734375 463.53125 261.738281 463.53125 261.738281 463.53125 M 261.695312 463.527344 C 261.6875 463.527344 261.6875 463.527344 261.6875 463.527344 C 261.6875 463.527344 261.6875 463.527344 261.695312 463.527344 M 261.644531 463.519531 C 261.644531 463.519531 261.644531 463.519531 261.640625 463.519531 C 261.644531 463.519531 261.644531 463.519531 261.644531 463.519531 M 261.601562 463.515625 C 261.601562 463.515625 261.59375 463.515625 261.59375 463.515625 C 261.59375 463.515625 261.601562 463.515625 261.601562 463.515625 M 261.554688 463.511719 C 261.550781 463.511719 261.550781 463.511719 261.550781 463.511719 C 261.550781 463.511719 261.550781 463.511719 261.554688 463.511719 M 261 463.472656 C 260.996094 463.472656 260.996094 463.472656 260.988281 463.472656 C 260.996094 463.472656 260.996094 463.472656 261 463.472656 M 260.953125 463.46875 C 260.949219 463.46875 260.945312 463.46875 260.945312 463.46875 C 260.949219 463.46875 260.949219 463.46875 260.953125 463.46875 M 260.910156 463.464844 C 260.90625 463.464844 260.902344 463.464844 260.898438 463.464844 C 260.902344 463.464844 260.90625 463.464844 260.910156 463.464844 M 260.867188 463.464844 C 260.859375 463.464844 260.851562 463.464844 260.847656 463.464844 C 260.851562 463.464844 260.859375 463.464844 260.867188 463.464844 M 260.816406 463.457031 C 260.8125 463.457031 260.808594 463.457031 260.804688 463.457031 C 260.808594 463.457031 260.8125 463.457031 260.816406 463.457031 M 260.773438 463.457031 C 260.765625 463.457031 260.761719 463.453125 260.757812 463.453125 C 260.761719 463.453125 260.765625 463.457031 260.773438 463.457031 M 260.726562 463.453125 C 260.722656 463.453125 260.71875 463.453125 260.714844 463.453125 C 260.71875 463.453125 260.722656 463.453125 260.726562 463.453125 M 260.683594 463.449219 C 260.679688 463.449219 260.667969 463.449219 260.664062 463.449219 C 260.667969 463.449219 260.679688 463.449219 260.683594 463.449219 M 260.632812 463.449219 C 260.628906 463.449219 260.625 463.449219 260.621094 463.449219 C 260.625 463.449219 260.628906 463.449219 260.632812 463.449219 M 260.589844 463.445312 C 260.585938 463.445312 260.582031 463.445312 260.574219 463.445312 C 260.582031 463.445312 260.585938 463.445312 260.589844 463.445312 M 260.542969 463.445312 C 260.539062 463.441406 260.535156 463.441406 260.53125 463.441406 C 260.535156 463.441406 260.539062 463.441406 260.542969 463.445312 M 260.5 463.441406 C 260.496094 463.441406 260.488281 463.441406 260.480469 463.441406 C 260.488281 463.441406 260.492188 463.441406 260.5 463.441406 M 260.453125 463.4375 C 260.445312 463.4375 260.441406 463.4375 260.4375 463.4375 C 260.441406 463.4375 260.445312 463.4375 260.453125 463.4375 M 260.40625 463.4375 C 260.402344 463.4375 260.398438 463.4375 260.394531 463.4375 C 260.398438 463.4375 260.402344 463.4375 260.40625 463.4375 M 260.359375 463.433594 C 260.351562 463.433594 260.347656 463.433594 260.34375 463.433594 C 260.347656 463.433594 260.351562 463.433594 260.359375 463.433594 M 260.3125 463.433594 C 260.308594 463.433594 260.304688 463.433594 260.300781 463.433594 C 260.304688 463.433594 260.308594 463.433594 260.3125 463.433594 M 260.269531 463.433594 C 260.265625 463.433594 260.257812 463.425781 260.253906 463.425781 C 260.257812 463.425781 260.265625 463.433594 260.269531 463.433594 M 260.222656 463.425781 C 260.214844 463.425781 260.214844 463.425781 260.207031 463.425781 C 260.210938 463.425781 260.21875 463.425781 260.222656 463.425781 M 260.171875 463.425781 C 260.171875 463.425781 260.167969 463.425781 260.160156 463.425781 C 260.167969 463.425781 260.171875 463.425781 260.171875 463.425781 M 260.121094 463.421875 C 260.121094 463.421875 260.117188 463.421875 260.117188 463.421875 C 260.117188 463.421875 260.121094 463.421875 260.121094 463.421875 M 259.980469 463.417969 L 259.976562 463.417969 L 259.980469 463.417969 M 259.929688 463.417969 C 259.925781 463.417969 259.925781 463.417969 259.921875 463.417969 C 259.925781 463.417969 259.925781 463.417969 259.929688 463.417969 M 259.886719 463.414062 C 259.882812 463.414062 259.875 463.414062 259.871094 463.414062 C 259.875 463.414062 259.882812 463.414062 259.886719 463.414062 M 259.839844 463.414062 C 259.835938 463.414062 259.828125 463.414062 259.824219 463.414062 C 259.828125 463.414062 259.835938 463.414062 259.839844 463.414062 M 259.792969 463.414062 C 259.789062 463.414062 259.785156 463.414062 259.777344 463.414062 C 259.785156 463.414062 259.789062 463.414062 259.792969 463.414062 M 259.746094 463.410156 C 259.742188 463.410156 259.734375 463.410156 259.730469 463.410156 C 259.734375 463.410156 259.742188 463.410156 259.746094 463.410156 M 259.703125 463.410156 C 259.699219 463.410156 259.691406 463.410156 259.683594 463.410156 C 259.691406 463.410156 259.699219 463.410156 259.703125 463.410156 M 259.660156 463.410156 C 259.648438 463.410156 259.644531 463.410156 259.636719 463.410156 C 259.644531 463.410156 259.648438 463.410156 259.660156 463.410156 M 259.609375 463.410156 C 259.605469 463.410156 259.597656 463.410156 259.589844 463.410156 C 259.597656 463.410156 259.605469 463.410156 259.609375 463.410156 M 259.566406 463.40625 C 259.5625 463.40625 259.550781 463.40625 259.542969 463.40625 C 259.550781 463.40625 259.5625 463.40625 259.566406 463.40625 M 259.519531 463.40625 C 259.511719 463.40625 259.507812 463.40625 259.5 463.40625 C 259.507812 463.40625 259.511719 463.40625 259.519531 463.40625 M 259.476562 463.40625 C 259.46875 463.40625 259.457031 463.40625 259.453125 463.40625 C 259.457031 463.40625 259.46875 463.40625 259.476562 463.40625 M 259.425781 463.40625 C 259.421875 463.40625 259.414062 463.40625 259.40625 463.40625 C 259.414062 463.40625 259.421875 463.40625 259.425781 463.40625 M 259.382812 463.40625 C 259.378906 463.40625 259.367188 463.40625 259.359375 463.40625 C 259.367188 463.40625 259.378906 463.40625 259.382812 463.40625 M 259.339844 463.40625 C 259.328125 463.40625 259.324219 463.402344 259.316406 463.402344 C 259.320312 463.402344 259.328125 463.40625 259.339844 463.40625 M 259.289062 463.402344 C 259.285156 463.402344 259.277344 463.402344 259.269531 463.402344 C 259.277344 463.402344 259.285156 463.402344 259.289062 463.402344 M 259.246094 463.402344 C 259.234375 463.402344 259.230469 463.402344 259.222656 463.402344 C 259.230469 463.402344 259.234375 463.402344 259.246094 463.402344 M 259.199219 463.402344 C 259.191406 463.402344 259.1875 463.402344 259.175781 463.402344 C 259.183594 463.402344 259.191406 463.402344 259.199219 463.402344 M 259.15625 463.402344 C 259.144531 463.402344 259.136719 463.402344 259.128906 463.402344 C 259.136719 463.402344 259.144531 463.402344 259.15625 463.402344 M 259.105469 463.402344 C 259.097656 463.402344 259.09375 463.402344 259.085938 463.402344 C 259.09375 463.402344 259.097656 463.402344 259.105469 463.402344 M 259.0625 463.402344 C 259.054688 463.402344 259.046875 463.402344 259.039062 463.402344 C 259.042969 463.402344 259.054688 463.402344 259.0625 463.402344 M 259.011719 463.402344 C 259.003906 463.402344 259 463.402344 258.996094 463.402344 C 259 463.402344 259.003906 463.402344 259.011719 463.402344 M 258.964844 463.402344 C 258.960938 463.402344 258.949219 463.402344 258.945312 463.402344 C 258.953125 463.402344 258.953125 463.402344 258.964844 463.402344 M 258.914062 463.402344 C 258.910156 463.402344 258.90625 463.402344 258.902344 463.402344 C 258.90625 463.402344 258.910156 463.402344 258.914062 463.402344 " fill-opacity="1" fill-rule="nonzero"/><g clip-path="url(#cb3d65c548)"><path fill="#305471" d="M 198.683594 530.640625 C 193.261719 530.640625 187.878906 530.515625 182.390625 530.265625 C 276.910156 525.539062 286.464844 510.148438 277 494.234375 C 272.675781 486.957031 265.394531 481.933594 257.210938 479.769531 C 215.875 468.828125 123.570312 461.34375 114.792969 460.34375 C 105.113281 459.25 149.433594 455.253906 149.433594 455.253906 C 184.578125 460.675781 214.589844 463.402344 250.152344 463.402344 L 258.851562 463.402344 C 258.871094 463.402344 258.882812 463.402344 258.902344 463.402344 C 258.90625 463.402344 258.910156 463.402344 258.914062 463.402344 C 258.921875 463.402344 258.9375 463.402344 258.945312 463.402344 C 258.949219 463.402344 258.960938 463.402344 258.964844 463.402344 C 258.972656 463.402344 258.980469 463.402344 258.996094 463.402344 C 259 463.402344 259.003906 463.402344 259.011719 463.402344 C 259.023438 463.402344 259.03125 463.402344 259.039062 463.402344 C 259.046875 463.402344 259.054688 463.402344 259.0625 463.402344 C 259.066406 463.402344 259.074219 463.402344 259.085938 463.402344 C 259.09375 463.402344 259.097656 463.402344 259.105469 463.402344 C 259.117188 463.402344 259.125 463.402344 259.128906 463.402344 C 259.136719 463.402344 259.144531 463.402344 259.15625 463.402344 C 259.160156 463.402344 259.167969 463.402344 259.175781 463.402344 C 259.1875 463.402344 259.191406 463.402344 259.199219 463.402344 C 259.207031 463.402344 259.214844 463.402344 259.222656 463.402344 C 259.230469 463.402344 259.234375 463.402344 259.246094 463.402344 C 259.253906 463.402344 259.261719 463.402344 259.269531 463.402344 C 259.277344 463.402344 259.285156 463.402344 259.289062 463.402344 C 259.296875 463.402344 259.308594 463.402344 259.316406 463.402344 C 259.324219 463.402344 259.328125 463.40625 259.339844 463.40625 C 259.347656 463.40625 259.351562 463.40625 259.359375 463.40625 C 259.367188 463.40625 259.378906 463.40625 259.382812 463.40625 C 259.390625 463.40625 259.398438 463.40625 259.40625 463.40625 C 259.414062 463.40625 259.421875 463.40625 259.425781 463.40625 C 259.4375 463.40625 259.445312 463.40625 259.453125 463.40625 C 259.457031 463.40625 259.46875 463.40625 259.476562 463.40625 C 259.484375 463.40625 259.488281 463.40625 259.5 463.40625 C 259.507812 463.40625 259.511719 463.40625 259.519531 463.40625 C 259.53125 463.40625 259.539062 463.40625 259.542969 463.40625 C 259.550781 463.40625 259.5625 463.40625 259.566406 463.40625 C 259.574219 463.410156 259.582031 463.410156 259.589844 463.410156 C 259.597656 463.410156 259.605469 463.410156 259.609375 463.410156 C 259.617188 463.410156 259.628906 463.410156 259.636719 463.410156 C 259.644531 463.410156 259.648438 463.410156 259.660156 463.410156 C 259.667969 463.410156 259.675781 463.410156 259.683594 463.410156 C 259.691406 463.410156 259.699219 463.410156 259.703125 463.410156 C 259.710938 463.410156 259.722656 463.410156 259.730469 463.410156 C 259.734375 463.410156 259.742188 463.410156 259.746094 463.410156 C 259.757812 463.414062 259.769531 463.414062 259.777344 463.414062 C 259.785156 463.414062 259.789062 463.414062 259.792969 463.414062 C 259.804688 463.414062 259.8125 463.414062 259.824219 463.414062 C 259.828125 463.414062 259.835938 463.414062 259.839844 463.414062 C 259.851562 463.414062 259.863281 463.414062 259.871094 463.414062 C 259.875 463.414062 259.882812 463.414062 259.886719 463.414062 C 259.894531 463.414062 259.90625 463.417969 259.921875 463.417969 C 259.925781 463.417969 259.925781 463.417969 259.929688 463.417969 C 259.949219 463.417969 259.960938 463.417969 259.976562 463.417969 L 259.980469 463.417969 C 260.023438 463.417969 260.066406 463.421875 260.117188 463.421875 C 260.117188 463.421875 260.121094 463.421875 260.121094 463.421875 C 260.136719 463.421875 260.148438 463.421875 260.160156 463.425781 C 260.167969 463.425781 260.171875 463.425781 260.171875 463.425781 C 260.183594 463.425781 260.199219 463.425781 260.207031 463.425781 C 260.214844 463.425781 260.214844 463.425781 260.222656 463.425781 C 260.234375 463.425781 260.242188 463.425781 260.253906 463.425781 C 260.257812 463.425781 260.265625 463.433594 260.269531 463.433594 C 260.277344 463.433594 260.289062 463.433594 260.300781 463.433594 C 260.304688 463.433594 260.308594 463.433594 260.3125 463.433594 C 260.328125 463.433594 260.335938 463.433594 260.34375 463.433594 C 260.347656 463.433594 260.351562 463.433594 260.359375 463.433594 C 260.371094 463.4375 260.378906 463.4375 260.394531 463.4375 C 260.398438 463.4375 260.402344 463.4375 260.40625 463.4375 C 260.414062 463.4375 260.425781 463.4375 260.4375 463.4375 C 260.441406 463.4375 260.445312 463.4375 260.453125 463.4375 C 260.464844 463.441406 260.46875 463.441406 260.480469 463.441406 C 260.488281 463.441406 260.496094 463.441406 260.5 463.441406 C 260.507812 463.441406 260.519531 463.441406 260.53125 463.441406 C 260.535156 463.441406 260.539062 463.441406 260.542969 463.445312 C 260.554688 463.445312 260.5625 463.445312 260.574219 463.445312 C 260.582031 463.445312 260.585938 463.445312 260.589844 463.445312 C 260.597656 463.445312 260.613281 463.449219 260.621094 463.449219 C 260.625 463.449219 260.628906 463.449219 260.632812 463.449219 C 260.648438 463.449219 260.65625 463.449219 260.664062 463.449219 C 260.667969 463.449219 260.679688 463.449219 260.683594 463.449219 C 260.691406 463.453125 260.699219 463.453125 260.714844 463.453125 C 260.71875 463.453125 260.722656 463.453125 260.726562 463.453125 C 260.734375 463.453125 260.75 463.453125 260.757812 463.453125 C 260.761719 463.453125 260.765625 463.457031 260.773438 463.457031 C 260.78125 463.457031 260.792969 463.457031 260.804688 463.457031 C 260.808594 463.457031 260.8125 463.457031 260.816406 463.457031 C 260.828125 463.457031 260.839844 463.457031 260.847656 463.464844 C 260.851562 463.464844 260.859375 463.464844 260.867188 463.464844 C 260.875 463.464844 260.886719 463.464844 260.898438 463.464844 C 260.902344 463.464844 260.90625 463.464844 260.910156 463.464844 C 260.917969 463.46875 260.933594 463.46875 260.945312 463.46875 C 260.945312 463.46875 260.949219 463.46875 260.953125 463.46875 C 260.96875 463.46875 260.976562 463.46875 260.988281 463.472656 C 260.996094 463.472656 260.996094 463.472656 261 463.472656 C 261.011719 463.472656 261.03125 463.472656 261.042969 463.472656 C 261.199219 463.484375 261.351562 463.5 261.507812 463.507812 C 261.519531 463.511719 261.535156 463.511719 261.550781 463.511719 C 261.550781 463.511719 261.550781 463.511719 261.554688 463.511719 C 261.570312 463.515625 261.582031 463.515625 261.59375 463.515625 C 261.59375 463.515625 261.601562 463.515625 261.601562 463.515625 C 261.613281 463.515625 261.625 463.519531 261.640625 463.519531 C 261.644531 463.519531 261.644531 463.519531 261.644531 463.519531 C 261.65625 463.519531 261.675781 463.527344 261.6875 463.527344 C 261.6875 463.527344 261.6875 463.527344 261.695312 463.527344 C 261.707031 463.527344 261.71875 463.527344 261.734375 463.53125 C 261.734375 463.53125 261.738281 463.53125 261.738281 463.53125 C 261.75 463.53125 261.765625 463.53125 261.777344 463.535156 C 261.78125 463.535156 261.78125 463.535156 261.78125 463.535156 C 261.796875 463.535156 261.8125 463.535156 261.828125 463.539062 C 261.84375 463.539062 261.859375 463.542969 261.871094 463.542969 L 261.875 463.542969 C 276.546875 464.9375 288.582031 476.417969 290.289062 491.507812 C 292.300781 509.207031 278.675781 524.882812 260.96875 526.617188 L 244.558594 528.160156 C 226.976562 529.8125 212.660156 530.640625 198.683594 530.640625 " fill-opacity="1" fill-rule="nonzero"/></g><path fill="#d85454" d="M 131.8125 199.683594 C 92.613281 202.160156 26.539062 243.082031 13.59375 327.621094 C 0.644531 412.160156 29.535156 465.859375 29.535156 465.859375 C 29.535156 465.859375 97.027344 458.4375 131.417969 422.832031 C 126.941406 383.488281 85.285156 376.148438 146.34375 311.644531 C 157.789062 299.558594 164.480469 283.476562 163.707031 266.847656 C 161.84375 226.941406 140.652344 198.875 131.8125 199.683594 " fill-opacity="1" fill-rule="nonzero"/><g clip-path="url(#2b88e5bc60)"><path fill="#343433" d="M 146.398438 188.402344 C 146.398438 188.402344 170.34375 184.675781 171.832031 182.910156 C 172.566406 182.03125 176.898438 176.953125 181.066406 172.066406 C 185.691406 166.640625 193.757812 165.804688 199.402344 170.160156 L 190.433594 183.695312 L 196.023438 188.46875 L 214.539062 166.871094 C 217.648438 163.242188 223.261719 163.234375 226.382812 166.855469 L 245.851562 189.429688 L 250.597656 189.429688 C 259.324219 189.429688 267.445312 184.964844 272.121094 177.589844 C 276.207031 171.148438 277.191406 163.214844 274.808594 155.96875 L 266.671875 131.25 L 257.519531 138.578125 L 248.84375 126.257812 C 240.042969 113.769531 225.890625 106.136719 210.621094 105.648438 L 206.023438 105.503906 C 190.246094 105.003906 175.207031 112.1875 165.683594 124.773438 C 161.039062 130.910156 157.953125 138.015625 156.601562 145.484375 C 154.429688 157.511719 152.097656 169.503906 148.566406 181.199219 L 146.398438 188.402344 " fill-opacity="1" fill-rule="nonzero"/></g><path fill="#d39167" d="M 170.910156 209.527344 C 170.910156 209.527344 162.179688 221.011719 163.710938 240.996094 L 178.121094 229.433594 L 170.910156 209.527344 " fill-opacity="1" fill-rule="nonzero"/><path fill="#e15959" d="M 163.167969 259.769531 C 163.167969 259.769531 145.667969 211.585938 77.417969 230.121094 C 71.847656 231.636719 63.507812 232.300781 58.917969 229.695312 C 53.957031 229.363281 56.609375 205.835938 72.625 205.84375 C 79.851562 205.847656 68.902344 198.265625 81.324219 191.328125 C 95.71875 183.296875 119.425781 183.777344 136.242188 197.511719 C 153.0625 211.242188 177.042969 254.402344 163.167969 259.769531 " fill-opacity="1" fill-rule="nonzero"/><path fill="#343433" d="M 331.261719 362.382812 L 331.230469 362.421875 C 330.4375 362.382812 329.644531 362.664062 329.113281 363.324219 L 268.21875 435.246094 L 293.148438 461.097656 L 370.832031 365.171875 L 331.261719 362.382812 " fill-opacity="1" fill-rule="nonzero"/><path fill="#b4b7b9" d="M 166.65625 436.199219 L 169.125 454.523438 L 294.988281 454.523438 L 270.734375 431.941406 L 170.375 431.941406 C 168.105469 431.941406 166.355469 433.949219 166.65625 436.199219 " fill-opacity="1" fill-rule="nonzero"/><path fill="#ffffff" d="M 325.199219 371.164062 L 357.679688 374.015625 L 295.210938 447.085938 L 275.429688 431.527344 L 325.199219 371.164062 " fill-opacity="1" fill-rule="nonzero"/><path fill="#d2d6d8" d="M 298.71875 454.523438 L 169.125 454.523438 C 169.125 460.957031 174.335938 466.167969 180.765625 466.167969 L 287.082031 466.167969 C 293.511719 466.167969 298.71875 460.957031 298.71875 454.523438 " fill-opacity="1" fill-rule="nonzero"/><path fill="#d2d6d8" d="M 296.695312 461.097656 L 372.964844 370.1875 C 374.035156 368.863281 373.828125 366.925781 372.511719 365.855469 C 371.1875 364.789062 369.253906 364.992188 368.1875 366.3125 L 291.910156 457.226562 L 296.695312 461.097656 " fill-opacity="1" fill-rule="nonzero"/><path fill="#343433" d="M 276.980469 451.367188 L 263.070312 434.046875 L 211.121094 434.046875 L 218.355469 451.367188 L 276.980469 451.367188 " fill-opacity="1" fill-rule="nonzero"/><path fill="#d2d6d8" d="M 206.09375 447.085938 L 176.230469 447.085938 L 175.203125 437.304688 L 203.347656 437.304688 L 206.09375 447.085938 " fill-opacity="1" fill-rule="nonzero"/><path fill="#6d96cb" d="M 325.199219 371.164062 L 357.679688 374.015625 L 350.144531 382.824219 L 320.394531 376.996094 L 325.199219 371.164062 " fill-opacity="1" fill-rule="nonzero"/><path fill="#e3e4e5" d="M 319.300781 382.035156 L 341.625 387.699219 L 337.382812 392.847656 L 316.554688 385.808594 L 319.300781 382.035156 " fill-opacity="1" fill-rule="nonzero"/><path fill="#e3e4e5" d="M 314.042969 388.558594 L 334.414062 396.113281 L 330.171875 401.261719 L 311.296875 392.335938 L 314.042969 388.558594 " fill-opacity="1" fill-rule="nonzero"/><path fill="#6d96cb" d="M 307.863281 397.484375 L 324.289062 405.890625 L 309.125 423.800781 L 293.960938 413.4375 L 307.863281 397.484375 " fill-opacity="1" fill-rule="nonzero"/><path fill="#d39167" d="M 195.28125 405.890625 L 205.746094 412.707031 L 228.429688 415.164062 L 249.28125 438.851562 L 238.558594 438.851562 L 213.128906 444.691406 L 177.433594 434.046875 L 195.28125 405.890625 " fill-opacity="1" fill-rule="nonzero"/><path fill="#d85454" d="M 142.144531 350.96875 L 200.597656 403.148438 L 184.9375 431.941406 L 100.546875 375.683594 L 142.144531 350.96875 " fill-opacity="1" fill-rule="nonzero"/><path fill="#e3a97d" d="M 208.378906 426.492188 L 233.71875 420.308594 L 253.359375 430.128906 L 262.816406 444.863281 C 259.164062 446.171875 255.082031 445.148438 252.480469 442.273438 L 247.308594 436.554688 L 248.445312 447.027344 L 243.195312 452.410156 L 230.316406 454.304688 L 193.308594 447.027344 L 197.085938 425.722656 L 208.378906 426.492188 " fill-opacity="1" fill-rule="nonzero"/><path fill="#e15959" d="M 148.683594 243.914062 C 166.378906 245.230469 171.085938 280.996094 166.378906 298.097656 C 163.007812 310.339844 150.171875 385.042969 150.171875 385.042969 L 209.957031 422.273438 C 209.957031 422.273438 207.972656 449.351562 191.375 452.335938 C 174.78125 455.320312 95.6875 417.566406 95.421875 399.027344 C 95.160156 380.492188 95.453125 326.582031 102.152344 296.722656 C 112.945312 248.601562 130.992188 242.601562 148.683594 243.914062 " fill-opacity="1" fill-rule="nonzero"/></svg>